<?xml version="1.0" encoding="UTF-8" standalone="no"?>
<svg width="32px" height="32px" viewBox="0 0 32 32" version="1.1" xmlns="http://www.w3.org/2000/svg" xmlns:xlink="http://www.w3.org/1999/xlink" xmlns:sketch="http://www.bohemiancoding.com/sketch/ns">
    <title>info</title>
    <description>Created with Sketch (http://www.bohemiancoding.com/sketch)</description>
    <defs></defs>
    <g id="Page-1" stroke="none" stroke-width="1" fill="none" fill-rule="evenodd" sketch:type="MSPage">
        <path d="M15.9998447,3.10779612 C23.1252816,3.10779612 28.8932039,8.87408738 28.8932039,16.0008447 C28.8932039,23.1263592 23.1266019,28.8940485 15.9998447,28.8940485 C8.87440777,28.8940485 3.10679612,23.1276019 3.10679612,16.0008447 C3.10679612,8.87540777 8.87324272,3.10779612 15.9998447,3.10779612 L15.9998447,3.10779612 Z M0,16.0008447 C0,24.8374272 7.16341748,32.0008447 15.9998447,32.0008447 C24.8364272,32.0008447 32,24.8374272 32,16.0008447 C32,7.16433981 24.8365049,0.001 15.9998447,0.001 C7.16341748,0.001 0,7.16433981 0,16.0008447 Z M18.3162718,24.6663204 L13.8389126,24.6663204 L13.8389126,14.0281068 L18.3162718,14.0281068 L18.3162718,24.6663204 L18.3162718,24.6663204 Z M16.0776699,11.8275631 C14.7167379,11.8275631 13.6132816,10.7241845 13.6132816,9.36309709 C13.6132816,8.00216505 14.7166602,6.89870874 16.0776699,6.89870874 C17.4387573,6.89870874 18.5419806,8.00208738 18.5419806,9.36309709 C18.5419806,10.7241845 17.4387573,11.8275631 16.0776699,11.8275631 L16.0776699,11.8275631 Z" id="info-2-icon" fill="#508A56" sketch:type="MSShapeGroup"></path>
    </g>
</svg>