<?xml version="1.0" encoding="UTF-8" standalone="no"?>
<svg width="24px" height="24px" viewBox="0 0 24 24" version="1.1" xmlns="http://www.w3.org/2000/svg" xmlns:xlink="http://www.w3.org/1999/xlink" xmlns:sketch="http://www.bohemiancoding.com/sketch/ns">
    <title>facebook</title>
    <description>Created with Sketch (http://www.bohemiancoding.com/sketch)</description>
    <defs></defs>
    <g id="Page-1" stroke="none" stroke-width="1" fill="none" fill-rule="evenodd" sketch:type="MSPage">
        <path d="M21.0873786,0 L2.91262136,0 C1.30403883,0 0,1.30403883 0,2.91262136 L0,21.0873786 C0,22.6959612 1.30403883,24 2.91262136,24 L21.0873786,24 C22.6959612,24 24,22.6959612 24,21.0873786 L24,2.91262136 C24,1.30403883 22.6960194,0 21.0873786,0 L21.0873786,0 Z M15.9461942,6.44609709 L14.0828155,6.44609709 C13.4250874,6.44609709 13.2879612,6.71551456 13.2879612,7.39613592 L13.2879612,9.04042718 L15.9461942,9.04042718 L15.6904078,11.9268932 L13.2879612,11.9268932 L13.2879612,20.55 L9.84460194,20.55 L9.84460194,11.9634175 L8.05392233,11.9634175 L8.05392233,9.04042718 L9.84460194,9.04042718 L9.84460194,6.73846602 C9.84460194,4.57805825 10.9998641,3.45 13.5621553,3.45 L15.9461942,3.45 L15.9461942,6.44609709 L15.9461942,6.44609709 Z" id="facebook-square-rounded-icon" fill="#80D680" sketch:type="MSShapeGroup"></path>
    </g>
</svg>