<?xml version="1.0" encoding="UTF-8" standalone="no"?>
<svg width="24px" height="24px" viewBox="0 0 24 24" version="1.1" xmlns="http://www.w3.org/2000/svg" xmlns:xlink="http://www.w3.org/1999/xlink" xmlns:sketch="http://www.bohemiancoding.com/sketch/ns">
    <title>google-plus</title>
    <description>Created with Sketch (http://www.bohemiancoding.com/sketch)</description>
    <defs></defs>
    <g id="Page-1" stroke="none" stroke-width="1" fill="none" fill-rule="evenodd" sketch:type="MSPage">
        <path d="M9.26737864,10.7574175 C7.96601942,10.7182136 6.72943689,9.52456311 6.50475728,7.81578641 C6.28001942,6.10660194 7.15264078,4.79895146 8.45376699,4.83768932 C9.75448544,4.8767767 10.8676893,6.27867961 11.0922524,7.98739806 C11.316699,9.69640777 10.5680388,10.7960971 9.26737864,10.7574175 L9.26737864,10.7574175 Z M9.00040777,14.2544854 C7.06182524,14.233165 5.41899029,15.4794757 5.41899029,16.9241359 C5.41899029,18.3984466 6.81897087,19.6255922 8.7576699,19.6255922 C11.2361359,19.6255922 12.4335146,18.473767 12.4335146,16.9994563 C12.4335146,15.5940583 11.1514369,14.2544854 9.00040777,14.2544854 L9.00040777,14.2544854 Z M24,2.91262136 L24,21.0873786 C24,22.6959612 22.6959612,24 21.0873786,24 L2.91262136,24 C1.30403883,24 0,22.6959612 0,21.0873786 L0,2.91262136 C0,1.30403883 1.30403883,0 2.91262136,0 L21.0873786,0 C22.6960194,0 24,1.30403883 24,2.91262136 L24,2.91262136 Z M14.1034369,16.8280777 C14.1034369,15.467068 13.5952427,14.5777864 12.0576699,13.4257864 C10.4981942,12.288466 10.1171068,11.6458835 11.6055728,10.4951068 C12.4442913,9.84658252 13.0320583,8.9821165 13.0320583,7.91481553 C13.0320583,6.75203883 12.5566019,5.69708738 11.6625437,5.18487379 L12.9298252,5.18487379 L14.0087184,4.05256311 L9.18081553,4.05256311 C6.16706796,4.05256311 4.68926214,5.85897087 4.68926214,7.84607767 C4.68926214,9.87681553 6.08236893,11.4761359 8.80275728,11.4761359 C8.38100971,12.3276117 8.55040777,13.1140194 9.24046602,13.6763883 C4.59431068,13.6763883 3.6001165,15.7151068 3.6001165,17.285534 C3.6001165,19.3204078 5.93918447,20.5301359 8.74398058,20.5301359 C12.5790291,20.5301359 14.1034369,18.4976505 14.1034369,16.8280777 L14.1034369,16.8280777 Z M20.4000583,6.50248544 L18.1727184,6.50248544 L18.1727184,4.27520388 L17.0591068,4.27520388 L17.0591068,6.50248544 L14.8318252,6.50248544 L14.8318252,7.61609709 L17.0591068,7.61609709 L17.0591068,9.84337864 L18.1727184,9.84337864 L18.1727184,7.61609709 L20.4,7.61609709 L20.4,6.50248544 L20.4000583,6.50248544 Z" id="google-plus-square-rounded-icon" fill="#80D680" sketch:type="MSShapeGroup"></path>
    </g>
</svg>