<?xml version="1.0" encoding="UTF-8" standalone="no"?>
<svg width="30px" height="30px" viewBox="0 0 30 30" version="1.1" xmlns="http://www.w3.org/2000/svg" xmlns:xlink="http://www.w3.org/1999/xlink" xmlns:sketch="http://www.bohemiancoding.com/sketch/ns">
    <title>somatosensory</title>
    <description>Created with Sketch (http://www.bohemiancoding.com/sketch)</description>
    <defs></defs>
    <g id="Page-1" stroke="none" stroke-width="1" fill="none" fill-rule="evenodd" sketch:type="MSPage">
        <path d="M18.5680546,30.0014634 C18.1068055,30.0014634 17.6457816,29.8300244 17.2937816,29.4872195 C16.5900819,28.8013902 16.5900819,27.689561 17.2937816,27.0037317 C20.5839454,23.7973171 22.3959795,19.5345366 22.3959795,15.0000732 C22.3959795,10.4657561 20.5839454,6.20282927 17.2937816,2.9964878 C16.5900819,2.31065854 16.5900819,1.1987561 17.2937816,0.513 C17.9974812,-0.172756098 19.1385529,-0.172756098 19.8422526,0.513 C23.8131399,4.38270732 26.0000751,9.52763415 26.0000751,15.0000732 C26.0000751,20.4725854 23.8131399,25.617439 19.8422526,29.4871463 C19.4904027,29.8300244 19.0292287,30.0014634 18.5680546,30.0014634 L18.5680546,30.0014634 L18.5680546,30.0014634 Z M12.1666553,26.690122 C11.7054061,26.690122 11.2443823,26.5186829 10.8923823,26.175878 C10.1886826,25.490122 10.1886826,24.3782195 10.8923823,23.6923902 C15.8106962,18.8994878 15.8106962,11.1008049 10.8923823,6.30790244 C10.1886826,5.62207317 10.1886826,4.51017073 10.8923823,3.82441463 C11.5960819,3.13873171 12.7371536,3.13865854 13.4408532,3.82441463 C16.5041092,6.80941463 18.1911263,10.7783415 18.1911263,15 C18.1911263,19.2215854 16.5041092,23.1905854 13.4408532,26.1757317 C13.0890034,26.5186829 12.6278294,26.690122 12.1666553,26.690122 L12.1666553,26.690122 L12.1666553,26.690122 Z M5.76525597,23.3787805 C5.30400683,23.3787805 4.84290785,23.2073415 4.49098294,22.8644634 C3.78720819,22.1786341 3.78720819,21.066878 4.49098294,20.3810488 C7.53569283,17.4139756 7.53569283,12.5862439 4.49098294,9.6192439 C3.78720819,8.93341463 3.78720819,7.8215122 4.49098294,7.1357561 C5.19475768,6.45 6.33567918,6.45 7.03945392,7.1357561 C11.4893857,11.4722195 11.4893857,18.5281463 7.03945392,22.8646098 C6.6876041,23.2073415 6.22643003,23.3787805 5.76525597,23.3787805 L5.76525597,23.3787805 L5.76525597,23.3787805 Z" id="somatosensory" fill="#008C79" sketch:type="MSShapeGroup"></path>
    </g>
</svg>