<?xml version="1.0" encoding="UTF-8" standalone="no"?>
<svg width="30px" height="30px" viewBox="0 0 30 30" version="1.1" xmlns="http://www.w3.org/2000/svg" xmlns:xlink="http://www.w3.org/1999/xlink" xmlns:sketch="http://www.bohemiancoding.com/sketch/ns">
    <title>memory</title>
    <description>Created with Sketch (http://www.bohemiancoding.com/sketch)</description>
    <defs></defs>
    <g id="Page-1" stroke="none" stroke-width="1" fill="none" fill-rule="evenodd" sketch:type="MSPage">
        <path d="M27.0183735,22.2528641 L27.0183735,25.640534 C27.0183735,28.0482524 21.4178464,30 14.5091867,30 C7.60052711,30 2,28.0482524 2,25.6406068 L2,22.2529369 C2.77432229,22.7911165 3.74593373,23.2655825 4.89796687,23.6671602 C7.5,24.5738592 10.9134036,25.073301 14.5091867,25.073301 C18.1050452,25.073301 21.5183735,24.573932 24.1204819,23.6670874 C25.2725904,23.2655825 26.2440512,22.7910437 27.0183735,22.2528641 L27.0183735,22.2528641 Z M24.1204819,16.5865049 C21.5183735,17.4933495 18.1050452,17.9927184 14.5091867,17.9927184 C10.9134036,17.9927184 7.5,17.4933495 4.89789157,16.5865049 C3.74585843,16.185 2.77432229,15.710534 2,15.1723544 L2,18.5294417 C2,20.9370874 7.60052711,22.888835 14.5091867,22.888835 C21.4178464,22.888835 27.0183735,20.9370874 27.0183735,18.5294417 L27.0183735,15.1723544 C26.2440512,15.710534 25.2725904,16.185 24.1204819,16.5865049 L24.1204819,16.5865049 Z M14.5091867,0 C7.60052711,0 2,1.95182039 2,4.35946602 C2,6.76718447 7.60052711,8.71900485 14.5091867,8.71900485 C21.4178464,8.71900485 27.0183735,6.76718447 27.0183735,4.35946602 C27.0183735,1.95182039 21.4178464,0 14.5091867,0 L14.5091867,0 Z M24.1204819,9.49718447 C21.5183735,10.4039563 18.1050452,10.9033981 14.5091867,10.9033981 C10.9134036,10.9033981 7.5,10.4039563 4.89789157,9.49718447 C3.74585843,9.09567961 2.77432229,8.62114078 2,8.08296117 L2,11.4488592 C2,13.8565049 7.60052711,15.8083252 14.5091867,15.8083252 C21.4178464,15.8083252 27.0183735,13.8565049 27.0183735,11.4488592 L27.0183735,8.08303398 C26.2440512,8.62114078 25.2725904,9.09567961 24.1204819,9.49718447 L24.1204819,9.49718447 Z" id="memory" fill="#C31B48" sketch:type="MSShapeGroup"></path>
    </g>
</svg>