<?xml version="1.0" encoding="UTF-8" standalone="no"?>
<svg width="30px" height="30px" viewBox="0 0 30 30" version="1.1" xmlns="http://www.w3.org/2000/svg" xmlns:xlink="http://www.w3.org/1999/xlink" xmlns:sketch="http://www.bohemiancoding.com/sketch/ns">
    <title>spatial-sense</title>
    <description>Created with Sketch (http://www.bohemiancoding.com/sketch)</description>
    <defs></defs>
    <g id="Page-1" stroke="none" stroke-width="1" fill="none" fill-rule="evenodd" sketch:type="MSPage">
        <path d="M15,2.91262136 C21.6800971,2.91262136 27.0873786,8.31866505 27.0873786,15 C27.0873786,21.6801699 21.6811893,27.0873786 15,27.0873786 C8.3198301,27.0873786 2.91262136,21.6811893 2.91262136,15 C2.91262136,8.3198301 8.31873786,2.91262136 15,2.91262136 L15,2.91262136 Z M15,0 C6.71570388,0 0,6.71570388 0,15 C0,23.2842961 6.71570388,30 15,30 C23.2842961,30 30,23.2842961 30,15 C30,6.71570388 23.2842961,0 15,0 L15,0 Z M10.753835,12.1213107 L8.68915049,8.68915049 L12.1278641,10.7576942 C11.5882282,11.121335 11.1215534,11.5848786 10.753835,12.1213107 L10.753835,12.1213107 Z M17.9642476,10.8212621 C18.4345631,11.1534466 18.846699,11.5624515 19.1823786,12.0301456 L21.3109223,8.68915049 L17.9642476,10.8212621 L17.9642476,10.8212621 Z M10.7994175,17.9984709 L8.68907767,21.3109951 L11.996068,19.2040049 C11.533835,18.8710922 11.1289806,18.4633252 10.7994175,17.9984709 L10.7994175,17.9984709 Z M17.913932,19.2672816 L21.3109223,21.3109223 L19.263568,17.9075243 C18.9026214,18.4407524 18.4441019,18.9024029 17.913932,19.2672816 L17.913932,19.2672816 Z M25.4999272,15.0000728 L18.2738592,16.6018689 C17.9557282,17.2508738 17.4501699,17.790801 16.8278155,18.1524757 L15,25.5 L13.1720388,18.1523301 C12.5498301,17.790801 12.0442718,17.250801 11.7261408,16.6018689 L4.50007282,15.0000728 L11.7261408,13.3982039 C12.0442718,12.749199 12.5498301,12.2092718 13.1720388,11.8476699 L15,4.5 L16.8279612,11.8476699 C17.4501699,12.2092718 17.9557282,12.749199 18.2738592,13.3982039 L25.4999272,15.0000728 L25.4999272,15.0000728 Z M16.6315049,15 C16.6315049,14.0989806 15.9010922,13.3684223 15,13.3684223 C14.0989078,13.3684223 13.3683495,14.0989806 13.3683495,15 C13.3683495,15.901165 14.0989078,16.6316505 15,16.6316505 C15.9010922,16.6316505 16.6315049,15.901165 16.6315049,15 L16.6315049,15 Z" id="spatial-sense" fill="#C2E736" sketch:type="MSShapeGroup"></path>
    </g>
</svg>