<?xml version="1.0" encoding="UTF-8" standalone="no"?>
<svg width="30px" height="30px" viewBox="0 0 30 30" version="1.1" xmlns="http://www.w3.org/2000/svg" xmlns:xlink="http://www.w3.org/1999/xlink" xmlns:sketch="http://www.bohemiancoding.com/sketch/ns">
    <title>executive</title>
    <description>Created with Sketch (http://www.bohemiancoding.com/sketch)</description>
    <defs></defs>
    <g id="Page-1" stroke="none" stroke-width="1" fill="none" fill-rule="evenodd" sketch:type="MSPage">
        <path d="M8.66504854,19.2111782 L0,19.2111782 L0,14.3239055 L8.66504854,14.3239055 L8.66504854,19.2111782 L8.66504854,19.2111782 Z M5.78883495,12.7966327 L5.78883495,4 L2.87621359,4 L2.87621359,12.7966327 L5.78883495,12.7966327 L5.78883495,12.7966327 Z M2.87621359,21.5020873 L2.87621359,25 L5.78883495,25 L5.78883495,21.5020873 L2.87621359,21.5020873 L2.87621359,21.5020873 Z M19.368932,14.5954545 L10.7038835,14.5954545 L10.7038835,9.70818182 L19.368932,9.70818182 L19.368932,14.5954545 L19.368932,14.5954545 Z M16.4927184,7.41727273 L16.4927184,4 L13.5800971,4 L13.5800971,7.41727273 L16.4927184,7.41727273 L16.4927184,7.41727273 Z M13.5800971,16.8863636 L13.5800971,25 L16.4927184,25 L16.4927184,16.8863636 L13.5800971,16.8863636 L13.5800971,16.8863636 Z M30,19.2261455 L21.3349515,19.2261455 L21.3349515,14.3388727 L30,14.3388727 L30,19.2261455 L30,19.2261455 Z M27.1237864,12.8116 L27.1237864,4 L24.211165,4 L24.211165,12.8116 L27.1237864,12.8116 L27.1237864,12.8116 Z M24.211165,21.5170545 L24.211165,25 L27.1237864,25 L27.1237864,21.5170545 L24.211165,21.5170545 L24.211165,21.5170545 Z" id="executive" fill="#00DDE6" sketch:type="MSShapeGroup"></path>
    </g>
</svg>