<?xml version="1.0" encoding="UTF-8" standalone="no"?>
<svg width="30px" height="30px" viewBox="0 0 30 30" version="1.1" xmlns="http://www.w3.org/2000/svg" xmlns:xlink="http://www.w3.org/1999/xlink" xmlns:sketch="http://www.bohemiancoding.com/sketch/ns">
    <title>motor</title>
    <description>Created with Sketch (http://www.bohemiancoding.com/sketch)</description>
    <defs></defs>
    <g id="Page-1" stroke="none" stroke-width="1" fill="none" fill-rule="evenodd" sketch:type="MSPage">
        <path d="M30,17.0200485 L30,12.9798786 L27.8169175,12.2035194 C26.9845631,11.9075243 26.3148786,11.2719175 25.9765777,10.4558738 C25.976432,10.4555825 25.9762864,10.4552184 25.9761408,10.4549272 C25.6368932,9.63684466 25.6606311,8.71332524 26.0408738,7.9134466 L27.0350243,5.8218932 L24.1781796,2.96504854 L22.0869175,3.95912621 C21.2874757,4.33915049 20.3626456,4.36296117 19.5450728,4.02385922 C19.5447087,4.02371359 19.5443447,4.02364078 19.5440534,4.02349515 C18.7274272,3.68490291 18.0926214,3.01616505 17.7964806,2.18322816 L17.0199757,0 L12.9798786,0 L12.2035194,2.18308252 C11.9075243,3.01543689 11.2719175,3.68504854 10.4558738,4.02342233 C10.4555097,4.02356796 10.4552184,4.02371359 10.4548544,4.02378641 C9.63677184,4.3631068 8.71317961,4.33929612 7.91322816,3.9590534 L5.82174757,2.96490291 L2.96490291,5.82174757 L3.9590534,7.91308252 C4.33907767,8.71252427 4.36281553,9.63742718 4.02378641,10.4550728 C4.02364078,10.4553641 4.02349515,10.4557282 4.02334951,10.4560194 C3.6848301,11.2725728 3.01601942,11.9073058 2.18322816,12.2034466 L0,12.9798786 L0,17.0200485 L2.18300971,17.796335 C3.01536408,18.0923301 3.68497573,18.7279369 4.02334951,19.5439078 C4.02349515,19.5442718 4.02356796,19.5446359 4.02371359,19.5449272 C4.36303398,20.3630825 4.33929612,21.2867476 3.9590534,22.0866262 L2.9648301,24.1781068 L5.82167476,27.0349515 L7.91300971,26.0408738 C8.71245146,25.6608495 9.63735437,25.6370388 10.4549272,25.9761408 C10.4552913,25.9762864 10.4556553,25.976432 10.4559466,25.9765777 C11.2725,26.3150971 11.9071602,26.983835 12.2033738,27.816699 L12.9798786,30 L17.0199757,30 L17.7914563,27.8308252 C18.0902184,26.9906796 18.7313592,26.3145146 19.5547573,25.9722087 C19.5551214,25.9720631 19.5554126,25.9719175 19.5557767,25.9717718 C20.3659951,25.6347816 21.281068,25.6578641 22.0735922,26.0346117 L24.1781068,27.0349515 L27.0349515,24.1781068 L26.0402913,22.0856068 C25.6606311,21.2868932 25.636966,20.3628641 25.9757767,19.5460194 C25.9759223,19.5456553 25.976068,19.5453641 25.9762136,19.545 C26.3150971,18.7276456 26.9845631,18.0924029 27.8182282,17.7958981 L30,17.0200485 L30,17.0200485 Z M15,20.5009223 C11.9618447,20.5009223 9.49893204,18.0380825 9.49893204,15 C9.49893204,11.9619175 11.9618447,9.49900485 15,9.49900485 C18.0380825,9.49900485 20.5009223,11.9619175 20.5009223,15 C20.5009223,18.0380825 18.0380825,20.5009223 15,20.5009223 L15,20.5009223 Z" id="motor" fill="#FF5C35" sketch:type="MSShapeGroup"></path>
    </g>
</svg>