<?xml version="1.0" encoding="UTF-8" standalone="no"?>
<svg width="24px" height="24px" viewBox="0 0 24 24" version="1.1" xmlns="http://www.w3.org/2000/svg" xmlns:xlink="http://www.w3.org/1999/xlink" xmlns:sketch="http://www.bohemiancoding.com/sketch/ns">
    <title>twitter</title>
    <description>Created with Sketch (http://www.bohemiancoding.com/sketch)</description>
    <defs></defs>
    <g id="Page-1" stroke="none" stroke-width="1" fill="none" fill-rule="evenodd" sketch:type="MSPage">
        <path d="M21.0873786,0 L2.91262136,0 C1.30403883,0 0,1.30403883 0,2.91262136 L0,21.0873786 C0,22.6959612 1.30403883,24 2.91262136,24 L21.0873786,24 C22.6959612,24 24,22.6959612 24,21.0873786 L24,2.91262136 C24,1.30403883 22.6959612,0 21.0873786,0 L21.0873786,0 Z M18.7539029,9.15291262 C18.9608738,13.7582913 15.5262524,18.8928932 9.44702913,18.8928932 C7.59792233,18.8928932 5.87679612,18.3508544 4.42776699,17.4218447 C6.16491262,17.6266019 7.89879612,17.1446796 9.27541748,16.0658447 C7.84264078,16.0394563 6.63332039,15.0928544 6.21669903,13.7919612 C6.72978641,13.8900583 7.23454369,13.8612816 7.69532039,13.7359223 C6.12075728,13.4194369 5.03365049,12.000932 5.06912621,10.4839223 C5.51050485,10.7292233 6.01543689,10.8765437 6.55223301,10.8935534 C5.09394175,9.91899029 4.68116505,7.99339806 5.53887379,6.522 C7.15380583,8.50293204 9.56662136,9.80656311 12.2878252,9.9431068 C11.8102136,7.89495146 13.3639806,5.92258252 15.4774369,5.92258252 C16.4192621,5.92258252 17.2702136,6.32015534 17.8674757,6.95656311 C18.6133398,6.80976699 19.3140583,6.53726214 19.9467379,6.16205825 C19.7022524,6.92667961 19.1830485,7.5683301 18.5070291,7.97359223 C19.1693592,7.89454369 19.800466,7.71850485 20.3876505,7.458 C19.9487767,8.11462136 19.3937476,8.69132039 18.7539029,9.15291262 L18.7539029,9.15291262 Z" id="twitter-3-icon" fill="#80D680" sketch:type="MSShapeGroup"></path>
    </g>
</svg>